<svg width="26" height="17" viewBox="0 0 26 17" fill="none" xmlns="http://www.w3.org/2000/svg">
<g clip-path="url(#clip0_602_117)">
<path d="M26 8.47884L25.9888 8.46745L23.7967 6.24234L17.6471 0C16.7347 0.162773 15.5529 1.36241 15.3909 2.29021L18.3895 5.33407C18.9011 5.85331 18.5387 6.74205 17.8155 6.74205H0.399285C-0.133095 7.5136 -0.133095 9.20969 0.399285 9.98123H18.0881C18.8129 9.98123 19.1753 10.87 18.6621 11.3892L15.3909 14.7098C15.5513 15.636 16.7331 16.8356 17.6471 17L23.7967 10.7577L25.9888 8.53255L26 8.52116C26 8.52116 25.9968 8.50651 25.9952 8.5C25.9952 8.49349 25.9984 8.48535 26 8.47884Z" fill="#1D1D1B"/>
</g>
<defs>
<clipPath id="clip0_602_117">
<rect width="26" height="17" fill="white"/>
</clipPath>
</defs>
</svg>
