<svg width="205" height="180" viewBox="0 0 205 180" fill="none" xmlns="http://www.w3.org/2000/svg">
<path d="M0.000157654 176.576V0.0001688H64.2322C113.088 0.0001688 149.296 28.5202 149.296 86.8002C149.296 150.288 108.376 176.576 64.2322 176.576H0.000157654ZM64.9762 161.2C101.68 161.2 130.944 135.904 130.944 86.8002C130.944 41.6642 104.16 15.3762 64.9762 15.3762H58.2802C33.4802 15.3762 17.3602 33.4802 17.3602 65.2242V113.088C17.3602 144.832 32.7362 161.2 58.2802 161.2H64.9762ZM191.59 179.552C184.646 179.552 179.19 173.848 179.19 166.904C179.19 159.96 184.646 154.256 191.59 154.256C198.782 154.256 204.238 159.96 204.238 166.904C204.238 173.848 198.782 179.552 191.59 179.552Z" fill="black"/>
</svg>
