<svg width="1661" height="197" viewBox="0 0 1661 197" fill="none" xmlns="http://www.w3.org/2000/svg">
<g clip-path="url(#clip0_1219_237)">
<path d="M0 2.94531H69.5861C122.531 2.94531 161.746 33.8093 161.746 96.8791C161.746 165.577 117.42 194.056 69.5861 194.056H0V2.94531ZM141.859 96.8791C141.859 48.0112 112.83 19.5701 70.407 19.5701H63.1685C36.3042 19.5701 18.8424 39.1769 18.8424 73.5075V125.32C18.8424 159.688 35.4833 177.394 63.1685 177.394H70.407C110.181 177.394 141.859 150.034 141.859 96.8791Z" fill="white"/>
<path d="M320.768 194.056L298.754 135.273H214.654L192.64 194.056H173.312L245.809 2.94531H267.562L340.095 194.056H320.768ZM292.56 118.909L270.808 60.3866C265.174 44.5446 248.495 44.5446 242.861 60.3866L220.847 118.909H292.598H292.56Z" fill="white"/>
<path d="M409.682 177.692H480.872V194.056H367.482V2.94531H386.287V154.32C386.287 169.901 394.347 177.655 409.645 177.655L409.682 177.692Z" fill="white"/>
<path d="M548.033 177.692H619.224V194.056H505.834V2.94531H524.639V154.32C524.639 169.901 532.698 177.655 547.996 177.655L548.033 177.692Z" fill="white"/>
<path d="M778.805 194.056L756.791 135.273H672.691L650.677 194.056H631.35L703.846 2.94531H725.599L798.132 194.056H778.805ZM750.597 118.909L728.845 60.3866C723.211 44.5446 706.532 44.5446 700.898 60.3866L678.885 118.909H750.635H750.597Z" fill="white"/>
<path d="M825.52 2.94531H853.988L905.031 142.243C907.978 151.115 917.381 151.115 920.627 142.243L972.229 2.94531H1000.44V194.056H981.631V70.3391C981.631 60.9457 971.147 58.7837 966.856 70.3391L920.366 194.093H905.851L859.1 70.3391C855.07 59.0819 844.325 61.2066 844.325 70.3391V194.093H825.52V2.94531Z" fill="white"/>
<path d="M1175.31 194.056L1153.3 135.273H1069.2L1047.19 194.056H1027.86L1100.36 2.94531H1122.11L1194.64 194.056H1175.31ZM1147.11 118.909L1125.35 60.3866C1119.72 44.5446 1103.04 44.5446 1097.41 60.3866L1075.39 118.909H1147.14H1147.11Z" fill="white"/>
<path d="M1229.83 135.274C1229.83 166.138 1249.71 180.116 1282.21 180.116C1311.76 180.116 1332.17 167.517 1332.17 144.705C1332.17 124.837 1318.22 113.58 1291.88 107.392L1260.98 99.6014C1228.48 91.5499 1213.15 76.2671 1213.15 51.2926C1213.15 21.2487 1236.51 0.0390625 1279.23 0.0390625C1319.26 0.0390625 1344.78 17.223 1345.31 55.6165H1325.68C1325.68 32.5431 1313.07 16.7011 1277.59 16.7011C1249.9 16.7011 1232.44 31.2012 1232.44 49.4288C1232.44 69.0357 1248.3 77.609 1276.24 84.0576L1302.29 90.5062C1333.7 98.2968 1351.46 114.139 1351.46 143.102C1351.46 178.811 1321.09 197.039 1282.14 197.039C1243.19 197.039 1209.34 180.675 1209.34 135.311H1229.75L1229.83 135.274Z" fill="white"/>
<path d="M1393.7 135.274C1393.7 166.138 1413.59 180.116 1446.08 180.116C1475.64 180.116 1496.04 167.517 1496.04 144.705C1496.04 124.837 1482.09 113.58 1455.75 107.392L1424.85 99.6014C1392.36 91.5499 1377.02 76.2671 1377.02 51.2926C1377.02 21.2487 1400.38 0.0390625 1443.1 0.0390625C1483.13 0.0390625 1508.66 17.223 1509.18 55.6165H1489.55C1489.55 32.5431 1476.94 16.7011 1441.46 16.7011C1413.77 16.7011 1396.31 31.2012 1396.31 49.4288C1396.31 69.0357 1412.17 77.609 1440.11 84.0576L1466.16 90.5062C1497.57 98.2968 1515.33 114.139 1515.33 143.102C1515.33 178.811 1484.96 197.039 1446.01 197.039C1407.06 197.039 1373.21 180.675 1373.21 135.311H1393.62L1393.7 135.274Z" fill="white"/>
<path d="M1589.81 177.692H1661V194.056H1547.61V2.94531H1566.41V154.32C1566.41 169.901 1574.47 177.655 1589.77 177.655L1589.81 177.692Z" fill="white"/>
</g>
<defs>
<clipPath id="clip0_1219_237">
<rect width="1661" height="197" fill="white"/>
</clipPath>
</defs>
</svg>
