<?xml version="1.0" encoding="UTF-8"?>
<svg id="Layer_1" xmlns="http://www.w3.org/2000/svg" version="1.1" viewBox="0 0 261 261">
  <!-- Generator: Adobe Illustrator 29.4.0, SVG Export Plug-In . SVG Version: 2.1.0 Build 152)  -->
  <g id="getintouch">
    <g id="rotate">
      <path d="M21.6,58.4c2.5-3.7,6.3-4.7,9.8-2.7l-1.1,1.7c-2.4-1.3-5.2-.9-7.1,2-2.3,3.5-1,8,3.2,10.8,4.4,2.9,8.9,2.4,11.2-1.2,1.3-2,1.8-4.9-.2-7.3-.9-1.1-2.1-1.1-2.9.2l-2.7,4-1.4-.9,4.9-7.4,8.1,5.4-1,1.5-2.9-1.9c1.4,2.5,1,5.2-.6,7.6-2.9,4.4-8.4,5.2-13.7,1.6-5.3-3.5-6.5-9-3.6-13.4Z"/>
      <path d="M30,47.4l9-9.8,1.3,1.2-5.2,5.6c-1.3,1.4-1.8,3.4,0,5.1,1.9,1.7,3.6,1.1,5.1-.5l4.6-5,1.3,1.2-7,7.7,6.1,5.6,7.4-8.2,1.3,1.2-8.8,9.6-15-13.7h0Z"/>
      <path d="M56,23.3l1.1,1.4-6.4,5.1,11.6,14.5-1.5,1.2-10.1-12.6c-1-1.3-2.2-1.4-3.6-.2l-4.3,3.4-1.1-1.4,14.2-11.5h0Z"/>
      <path d="M78.5,33.7l-1.7.9-9.8-17.8,1.7-.9,9.8,17.8Z"/>
      <path d="M76,12.1l12.6,9.6c1.2,1,2.3,0,1.8-1.1l-5.2-12.3,1.8-.8,7.8,18.8-2.3,1-12.6-9.6c-1.2-.9-2.3,0-1.8,1.2l5.1,12.3-1.8.8-7.8-18.8,2.4-1Z"/>
      <path d="M118.1.6l.3,1.8-8.1,1.3,3,18.3-2,.3-2.6-15.9c-.3-1.6-1.3-2.3-3.1-2l-5.4.9-.3-1.8,18.1-3Z"/>
      <path d="M120.2,10.5C120.1,4.4,123.4,0,129.1,0c5.7,0,9.2,4.1,9.3,10.2.1,6.4-3.2,10.8-9,10.9-5.7,0-9.2-4.2-9.3-10.6h0ZM129.1,1.8c-3.8,0-7,2.9-6.9,8.7,0,5.7,3.4,8.8,7.2,8.7,3.8,0,7-3.3,6.9-9,0-5.8-3.4-8.5-7.2-8.5h0Z"/>
      <path d="M147.5,22.3c-6.3-1-6.6-5.3-5.9-9.7l1.8-11.8,2,.3-1.9,12.5c-.6,3.8.5,6.4,4.3,7,3.8.6,5.6-1.6,6.2-5.4l1.9-12.5,2,.3-1.8,11.8c-.7,4.5-2.3,8.5-8.6,7.5h0Z"/>
      <path d="M165,26.6c-4.9-1.6-7.3-6.9-5.3-12.9,2-6,6.9-8.6,11.9-7,4.3,1.4,6.3,5,5.3,8.7l-1.9-.6c.6-2.6-.5-5.2-3.8-6.3-3.9-1.3-7.9,1.2-9.5,5.9-1.6,4.9.2,9.3,4.1,10.6,3.1,1,5.6-.1,6.8-2.4l1.9.6c-1.7,3.2-5.1,4.9-9.5,3.4h0Z"/>
      <path d="M185.5,12.4l-4.1,7.9,6.5,3.3c1.9,1,3.2.5,4.1-1.3l2.7-5.2,1.8.9-9.3,18.1-1.8-.9,4.4-8.6-6.5-3.4c-1.8-1-3.2-.5-4.1,1.3l-3,5.9-1.8-.9,9.3-18.1,1.8.9h0Z"/>
      <path d="M251.5,81.8c1.7,4.2.3,7.8-3.3,9.7l-.8-1.9c2.4-1.3,3.7-3.8,2.4-7-1.6-3.9-6-5.3-10.7-3.4-4.9,2-7,5.9-5.4,9.9.9,2.2,3.1,4.3,6.1,3.9,1.4-.1,2.1-1.1,1.5-2.5l-1.8-4.4,1.6-.6,3.3,8.2-9,3.7-.7-1.7,3.2-1.3c-2.9-.2-4.9-2.1-6-4.8-2-4.9.5-9.8,6.4-12.3,5.8-2.4,11.1-.3,13.1,4.6h0Z"/>
      <path d="M255.9,94.9l3,13-1.7.4-1.7-7.4c-.4-1.8-1.8-3.4-4.1-2.9h0c-2.5.6-3,2.4-2.5,4.5l1.6,6.7-1.7.4-2.4-10.2-8.1,1.9,2.5,10.8-1.7.4-3-12.7,19.8-4.6h0Z"/>
      <path d="M261,130.1h-1.8c0,.1-.6-8-.6-8l-18.5,1.4-.2-2,16.1-1.2c1.6-.1,2.3-1,2.2-2.9l-.4-5.4h1.8c0-.1,1.4,18.1,1.4,18.1h0Z"/>
      <path d="M239.7,142.7l.2-2,20.2,2-.2,2-20.2-2Z"/>
      <path d="M258.9,152.8l-15,4.9c-1.5.5-1.3,1.9-.1,2.2l13.1,2.7-.4,2-19.9-4.2.5-2.5,15-5c1.5-.5,1.3-1.9,0-2.2l-13-2.7.4-2,19.9,4.2-.5,2.5h0Z"/>
      <path d="M244.6,194.1l-1.6-.7,3.4-7.4-16.8-7.8.8-1.8,14.6,6.8c1.5.7,2.6.2,3.3-1.4l2.3-4.9,1.6.7-7.7,16.6Z"/>
      <path d="M235.3,190.3c5.1,3.4,6.7,8.6,3.5,13.4-3.2,4.7-8.6,5.2-13.7,1.8-5.3-3.6-7-8.8-3.8-13.6,3.2-4.7,8.7-5.1,14-1.6h0ZM237.3,202.6c2.1-3.2,1.6-7.4-3.2-10.7-4.7-3.2-9.2-2.3-11.3.9-2.1,3.2-1.3,7.6,3.4,10.8,4.8,3.2,8.9,2.1,11.1-1.1Z"/>
      <path d="M210.1,206.1c4.4-4.6,8.1-2.5,11.4.6l8.7,8.2-1.4,1.4-9.2-8.7c-2.8-2.7-5.6-3.2-8.3-.4-2.6,2.8-1.9,5.5.9,8.2l9.2,8.7-1.4,1.4-8.7-8.2c-3.3-3.1-5.7-6.7-1.3-11.3Z"/>
      <path d="M196.6,218.2c4.1-3.1,9.8-2.2,13.6,2.9,3.8,5,3.2,10.6-1,13.7-3.6,2.7-7.7,2.4-10.2-.5l1.6-1.2c1.8,2,4.6,2.6,7.4.4,3.3-2.5,3.5-7.2.5-11.2-3.2-4.1-7.8-5-11-2.5-2.6,2-3.1,4.7-1.9,7l-1.6,1.2c-1.6-3.2-1.1-7,2.5-9.8h0Z"/>
      <path d="M196.8,243l-4.2-7.8-6.4,3.5c-1.9,1-2.3,2.3-1.3,4.2l2.8,5.1-1.7.9-9.7-17.9,1.7-.9,4.6,8.5,6.4-3.5c1.8-1,2.2-2.3,1.2-4.2l-3.1-5.8,1.8-.9,9.7,17.9-1.8.9Z"/>
      <path d="M119.8,261c-4.5-.4-7.1-3.3-7.2-7.3l2,.2c0,2.7,1.7,5,5.2,5.3,4.1.3,7.5-3,7.9-8,.4-5.3-2.2-8.9-6.5-9.3-2.4-.2-5.2.8-6.2,3.7-.5,1.3,0,2.4,1.6,2.5l4.8.4v1.7c-.1,0-9-.7-9-.7l.7-9.7h1.8c0,.1-.2,3.6-.2,3.6,1.5-2.5,4.1-3.4,6.9-3.2,5.3.4,8.6,4.9,8.1,11.2-.5,6.3-4.7,10.1-9.9,9.7h0Z"/>
      <path d="M106.1,259l-12.9-3.1.4-1.7,7.4,1.8c1.8.4,3.9-.1,4.5-2.4.6-2.5-.8-3.7-2.9-4.2l-6.6-1.6.4-1.7,10.2,2.4,1.9-8.1-10.8-2.6.4-1.7,12.7,3-4.7,19.8h0Z"/>
      <path d="M72.4,247.8l.7-1.6,7.6,3.1,7-17.2,1.8.7-6.1,14.9c-.6,1.5-.1,2.6,1.6,3.3l5,2.1-.7,1.6-16.9-7h0Z"/>
      <path d="M70.7,223.1l1.7,1.1-10.9,17.2-1.7-1.1,10.9-17.2Z"/>
      <path d="M53.1,235.7l2.3-15.6c.2-1.6-1.1-2-1.9-1.1l-8.3,10.5-1.6-1.3,12.6-15.9,2,1.6-2.3,15.7c-.2,1.5,1.1,2,1.9,1l8.3-10.4,1.6,1.3-12.6,15.9-2-1.6Z"/>
      <path d="M22.6,204.4l1.4-1.1,5.1,6.4,14.6-11.5,1.2,1.5-12.6,10c-1.3,1-1.4,2.2-.2,3.6l3.4,4.3-1.4,1.1-11.3-14.3h0Z"/>
      <path d="M30.2,197.7c-5.3,3-10.7,2.2-13.5-2.8-2.8-5-.8-10.1,4.6-13.1,5.5-3.1,11-2.3,13.8,2.7,2.8,5,.7,10.1-4.9,13.2h0ZM18.2,194c1.9,3.3,5.9,4.7,11,1.9,4.9-2.8,6.1-7.2,4.2-10.5-1.9-3.3-6.2-4.6-11.2-1.8-5,2.8-5.9,7-4,10.4Z"/>
      <path d="M27.4,168.2c2.2,6-1.4,8.4-5.7,9.9l-11.2,4.1-.7-1.9,11.8-4.3c3.6-1.3,5.4-3.6,4.1-7.2-1.3-3.6-4.1-4.2-7.7-2.9l-11.8,4.3-.7-1.9,11.2-4.1c4.2-1.5,8.5-2.1,10.7,3.9Z"/>
      <path d="M22.6,150.8c1,5.1-2.5,9.7-8.7,10.9-6.1,1.2-10.8-1.9-11.8-7.1-.8-4.4,1.3-8,5.1-8.8l.4,2c-2.6.7-4.3,2.9-3.7,6.4.8,4.1,4.9,6.4,9.7,5.5,5.1-1,8-4.7,7.2-8.7-.6-3.3-2.8-4.9-5.4-4.8l-.4-2c3.6,0,6.7,2.2,7.6,6.6h0Z"/>
      <path d="M.4,139.6l8.9-.2-.2-7.3c0-2.1-1.1-3.1-3.1-3l-5.8.2v-2c0,0,20.3-.6,20.3-.6v2c0,0-9.6.3-9.6.3l.2,7.3c0,2.1,1.1,3,3.1,3l6.6-.2v2c0,0-20.3.6-20.3.6v-2Z"/>
    </g>
    <g id="d">
      <path d="M181.1,181.1c0-4.7,3.7-8.6,8.5-8.6s8.6,3.9,8.6,8.6-3.7,8.6-8.6,8.6-8.5-3.9-8.5-8.6Z"/>
      <path d="M80.4,67h43.9c33.4,0,58.1,19.5,58.1,59.3s-27.9,61.4-58.1,61.4h-43.9v-120.7ZM169.9,126.3c0-30.8-18.3-48.8-45-48.8h-4.6c-16.9,0-27.9,12.4-27.9,34.1v32.7c0,21.7,10.5,32.9,27.9,32.9h4.6c25.1,0,45-17.3,45-50.8h0Z"/>
    </g>
  </g>
</svg>