<?xml version="1.0" encoding="UTF-8"?>
<svg id="logo-animation" xmlns="http://www.w3.org/2000/svg" version="1.1" viewBox="0 0 1624 183">
  <!-- Generator: Adobe Illustrator 29.4.0, SVG Export Plug-In . SVG Version: 2.1.0 Build 152)  -->
  <g id="long">
    <path d="M1535.8,142.6c0,14.4,7.4,21.6,21.6,21.6h65.7v15.1h-104.6V2.7h17.4v139.9h0Z"/>
    <path d="M1347.5,125h18.9c0,28.5,18.3,41.4,48.4,41.4s46.1-11.7,46.1-32.7-12.9-28.8-37.2-34.5l-28.5-7.2c-30-7.4-44.1-21.6-44.1-44.6S1372.5,0,1411.9,0s60.5,15.9,61,51.3h-18.1c0-21.3-11.7-36-44.4-36s-41.7,13.4-41.7,30.3,14.6,26,40.4,32l24.1,6c29,7.2,45.4,21.8,45.4,48.6s-28,49.8-64,49.8-67.2-15.1-67.2-57h0Z"/>
    <path d="M1186.2,125h18.8c0,28.5,18.4,41.4,48.4,41.4s46.1-11.7,46.1-32.7-12.9-28.8-37.2-34.5l-28.5-7.2c-30-7.4-44.1-21.6-44.1-44.6S1211.2,0,1250.7,0s60.5,15.9,61,51.3h-18.1c0-21.3-11.7-36-44.4-36s-41.7,13.4-41.7,30.3,14.6,26,40.4,32l24,6c29,7.2,45.4,21.8,45.4,48.6s-28,49.8-64,49.8-67.2-15.1-67.2-57h0Z"/>
    <path d="M1162.6,179.3h-17.9l-20.3-54.3h-77.6l-20.3,54.3h-17.9L1075.5,2.7h20.1l67,176.6ZM1052.4,109.9h66.2l-20.1-54.1c-5.2-14.6-20.6-14.6-25.8,0l-20.3,54.1h0Z"/>
    <path d="M812,179.3V2.7h26.3l47.1,128.7c2.7,8.2,11.4,8.2,14.4,0L947.4,2.7h26v176.6h-17.4v-114.3c0-8.7-9.7-10.7-13.6,0l-42.9,114.3h-13.4l-43.2-114.3c-3.7-10.4-13.6-8.4-13.6,0v114.3h-17.4.1Z"/>
    <path d="M776.8,179.3h-17.9l-20.3-54.3h-77.6l-20.3,54.3h-17.9L689.7,2.7h20.1l67,176.6ZM666.7,109.9h66.2l-20.1-54.1c-5.2-14.6-20.6-14.6-25.8,0l-20.3,54.1h0Z"/>
    <path d="M514.3,142.6c0,14.4,7.4,21.6,21.6,21.6h65.7v15.1h-104.7V2.7h17.4v139.9h0Z"/>
    <path d="M376.5,142.6c0,14.4,7.4,21.6,21.6,21.6h65.7v15.1h-104.7V2.7h17.4v139.9h0Z"/>
    <path d="M323.9,179.3h-17.9l-20.3-54.3h-77.6l-20.3,54.3h-17.9L236.9,2.7h20.1l67,176.6h-.1ZM213.8,109.9h66.2l-20.1-54.1c-5.2-14.6-20.6-14.6-25.8,0l-20.3,54.1h0Z"/>
  </g>
  <g id="short">
    <path d="M191.6,181.3c-6.9,0-12.4-5.7-12.4-12.6s5.5-12.6,12.4-12.6,12.6,5.7,12.6,12.6-5.5,12.6-12.6,12.6Z"/>
  </g>
  <path id="letter-d" d="M0,178.3V1.7h64.2c48.9,0,85.1,28.5,85.1,86.8s-40.9,89.8-85.1,89.8H0ZM65,162.9c36.7,0,66-25.3,66-74.4S104.2,17.1,65,17.1h-6.7c-24.8,0-40.9,18.1-40.9,49.8v47.9c0,31.7,15.4,48.1,40.9,48.1h6.7Z"/>
</svg>