<svg width="157" height="48" viewBox="0 0 157 48" fill="none" xmlns="http://www.w3.org/2000/svg">
<g clip-path="url(#clip0_11_1615)">
<path d="M47.7143 21.5711H40.9781L44.423 12.3162H44.4796L47.7143 21.5711ZM30.3926 39.1109L32.6245 40L40.0805 23.705H48.5715L51.3614 30.9472L53.9168 30.1147L45.7573 9.99646H43.3232L30.3926 39.1109Z" fill="#4F1E27"/>
<path d="M68.0123 30.5269V28.393H59.2624L59.4403 9.99646H56.8849L56.707 30.5269H68.0123Z" fill="#4F1E27"/>
<path d="M73.5024 30.5269H75.9122L81.5163 13.2053H81.581L86.894 30.5269H89.2957L96.2422 10.2955L93.8647 9.58423L88.1393 27.3261H88.0827L83.0366 9.99645H80.3599L74.8448 27.3261H74.7801L69.7663 9.58423L67.1543 10.2955L73.5024 30.5269Z" fill="#4F1E27"/>
<path d="M99.0325 30.5269H109.893V28.393H101.644L101.701 21.2397H109.505V19.1058H101.669L101.733 12.1384H109.772V9.99646H99.2104L99.0325 30.5269Z" fill="#4F1E27"/>
<path d="M116.597 11.7828H119.653C122.977 11.7828 124.222 13.7146 124.222 15.905C124.222 18.9038 121.61 19.7929 119.087 19.7929H116.532L116.588 11.7828H116.597ZM113.871 30.5269H116.451L116.572 21.7489H118.206C120.163 21.7489 120.761 22.9371 122.031 24.5698L126.867 31.1574L129.123 29.7914L124.999 24.3354C124.133 23.2685 122.977 21.4256 121.618 21.1589V21.1023C124.497 20.7143 126.786 18.7583 126.786 15.4039C126.786 12.0495 124.141 10.0045 120.252 10.0045H114.049L113.871 30.535V30.5269Z" fill="#4F1E27"/>
<path d="M142.797 21.5711H136.061L139.506 12.3162H139.563L142.797 21.5711ZM129.794 30.2036L132.171 30.9472L135.172 23.705H143.663L146.453 30.9472L149.008 30.1147L140.848 9.99646H138.414L129.81 30.1955L129.794 30.2036Z" fill="#4F1E27"/>
<path d="M28.1278 37.0821C28.6373 35.6191 29.1629 33.4125 28.9769 30.341C28.8071 30.3976 28.6454 30.4299 28.4837 30.4865C16.2161 34.9886 16.3212 22.929 14.3481 14.3208L8 29.2902L27.861 37.7206L28.1359 37.0821H28.1278Z" fill="#A0B100"/>
<path d="M37.1281 15.8889L24.9414 10.7159C30.9822 15.1372 34.0147 22.7027 29.7207 29.759C29.8339 30.6077 29.9066 31.6989 29.8905 32.9518L37.1281 15.897V15.8889Z" fill="#A0B100"/>
<path d="M28.3619 26.0813C28.087 24.7638 27.7311 23.5029 27.3025 22.3147C26.874 21.1184 26.3645 19.9707 25.7822 18.9118C25.2 17.8368 24.5207 16.8103 23.7848 15.8565C23.0328 14.8946 22.1917 13.9894 21.2779 13.1568C20.3561 12.3162 19.329 11.5241 18.2292 10.8128C17.1214 10.0934 15.9084 9.42256 14.6145 8.83251C13.9837 8.54152 13.3287 8.26671 12.6494 8.00806C12.6737 8.04847 12.706 8.08889 12.7303 8.1293C13.2397 8.87292 13.6926 9.7782 14.0969 10.8856C14.8328 12.8982 15.3019 15.2341 15.8032 17.6994C16.3693 20.4961 16.9596 23.3978 17.9543 25.7014C18.4799 26.9138 19.0703 27.8676 19.7657 28.6112C20.534 29.4357 21.4073 29.9934 22.4424 30.3006C23.3077 30.5592 24.2943 30.6481 25.3779 30.5592C26.4454 30.4703 27.6341 30.2036 28.9199 29.7752C28.7905 28.4981 28.5964 27.2614 28.3457 26.0894L28.3619 26.0813ZM25.8227 30.1147C24.7391 30.2036 23.7525 30.1147 22.8872 29.856C21.8521 29.5408 20.9787 28.9911 20.2105 28.1667C19.515 27.4231 18.9247 26.4693 18.3991 25.2569C17.4044 22.9452 16.8141 20.0515 16.248 17.2548C16.1348 16.681 16.0135 16.1152 15.9003 15.5574C16.0297 16.002 16.159 16.4466 16.2884 16.8911C17.178 19.9626 18.0918 23.123 19.3937 25.5559C20.073 26.8168 20.7927 27.7787 21.6014 28.4981C22.2241 29.0477 22.8791 29.4438 23.6069 29.7024C23.9223 29.8156 24.2539 29.9045 24.5935 29.9611C25.2 30.0662 25.8469 30.0904 26.5343 30.0257C26.2917 30.0662 26.0491 30.0904 25.8146 30.1066L25.8227 30.1147Z" fill="#1B8C04"/>
</g>
<defs>
<clipPath id="clip0_11_1615">
<rect width="141" height="32" fill="white" transform="translate(8 8)"/>
</clipPath>
</defs>
</svg>
