<svg width="1624" height="183" viewBox="0 0 1624 183" fill="none" xmlns="http://www.w3.org/2000/svg">
<path d="M0.000157654 179.304V2.72771H64.2322C113.088 2.72771 149.296 31.2477 149.296 89.5277C149.296 153.016 108.376 179.304 64.2322 179.304H0.000157654ZM64.9762 163.928C101.68 163.928 130.944 138.632 130.944 89.5277C130.944 44.3917 104.16 18.1037 64.9762 18.1037H58.2802C33.4802 18.1037 17.3602 36.2077 17.3602 67.9517V115.816C17.3602 147.56 32.7362 163.928 58.2802 163.928H64.9762ZM323.919 179.304H306.063L285.727 124.992H208.103L187.767 179.304H169.911L236.871 2.72771H256.959L323.919 179.304ZM213.807 109.864H280.023L259.935 55.7997C254.727 41.1677 239.351 41.1677 234.143 55.7997L213.807 109.864ZM376.505 142.6C376.505 156.984 383.945 164.176 398.081 164.176H463.801V179.304H359.145V2.72771H376.505V142.6ZM514.3 142.6C514.3 156.984 521.74 164.176 535.876 164.176H601.596V179.304H496.94V2.72771H514.3V142.6ZM776.781 179.304H758.925L738.589 124.992H660.965L640.629 179.304H622.773L689.733 2.72771H709.821L776.781 179.304ZM666.669 109.864H732.885L712.797 55.7997C707.589 41.1677 692.213 41.1677 687.005 55.7997L666.669 109.864ZM812.006 179.304V2.72771H838.294L885.414 131.44C888.142 139.624 896.822 139.624 899.798 131.44L947.414 2.72771H973.454V179.304H956.094V64.9757C956.094 56.2957 946.422 54.3117 942.454 64.9757L899.55 179.304H886.158L843.006 64.9757C839.286 54.5597 829.366 56.5437 829.366 64.9757V179.304H812.006ZM1162.57 179.304H1144.71L1124.37 124.992H1046.75L1026.41 179.304H1008.56L1075.52 2.72771H1095.61L1162.57 179.304ZM1052.45 109.864H1118.67L1098.58 55.7997C1093.37 41.1677 1078 41.1677 1072.79 55.7997L1052.45 109.864ZM1186.18 124.992H1205.02C1205.02 153.512 1223.38 166.408 1253.38 166.408C1280.66 166.408 1299.51 154.752 1299.51 133.672C1299.51 115.32 1286.62 104.904 1262.31 99.1997L1233.79 92.0077C1203.78 84.5677 1189.65 70.4317 1189.65 47.3677C1189.65 19.5917 1211.22 -0.000301361 1250.66 -0.000301361C1287.61 -0.000301361 1311.17 15.8717 1311.66 51.3357H1293.56C1293.56 30.0077 1281.9 15.3757 1249.17 15.3757C1223.62 15.3757 1207.5 28.7677 1207.5 45.6317C1207.5 63.7357 1222.14 71.6717 1247.93 77.6237L1271.98 83.5757C1301 90.7677 1317.37 105.4 1317.37 132.184C1317.37 165.168 1289.34 182.032 1253.38 182.032C1216.18 182.032 1186.18 166.904 1186.18 124.992ZM1347.46 124.992H1366.31C1366.31 153.512 1384.66 166.408 1414.67 166.408C1441.95 166.408 1460.8 154.752 1460.8 133.672C1460.8 115.32 1447.9 104.904 1423.6 99.1997L1395.08 92.0077C1365.07 84.5677 1350.94 70.4317 1350.94 47.3677C1350.94 19.5917 1372.51 -0.000301361 1411.94 -0.000301361C1448.9 -0.000301361 1472.46 15.8717 1472.95 51.3357H1454.85C1454.85 30.0077 1443.19 15.3757 1410.46 15.3757C1384.91 15.3757 1368.79 28.7677 1368.79 45.6317C1368.79 63.7357 1383.42 71.6717 1409.22 77.6237L1433.27 83.5757C1462.29 90.7677 1478.66 105.4 1478.66 132.184C1478.66 165.168 1450.63 182.032 1414.67 182.032C1377.47 182.032 1347.46 166.904 1347.46 124.992ZM1535.79 142.6C1535.79 156.984 1543.23 164.176 1557.36 164.176H1623.08V179.304H1518.43V2.72771H1535.79V142.6Z" fill="black"/>
</svg>
