<svg width="79" height="56" viewBox="0 0 79 56" fill="none" xmlns="http://www.w3.org/2000/svg">
<g clip-path="url(#clip0_878_1153)">
<path d="M14.3034 24.7111C20.3937 29.34 26.2404 31.9155 29.1637 36.4401C33.4095 42.9485 28.9549 52.6589 22.1686 55.0255C13.5029 58.0535 5.11571 53.9814 2.01835 45.2804C-6.26447 21.9963 11.728 -1.07888 37.6206 0.348098V9.53641C26.484 10.9286 16.1479 13.2257 14.3034 24.7111Z" fill="black"/>
<path d="M78.1647 0.173614C79.8352 6.29916 79.696 9.84919 71.796 10.6845C63.1304 11.5894 56.0656 16.0443 54.9868 26.764C56.7616 27.3905 58.5017 28.0866 60.3114 28.5739C67.6546 30.5577 71.5872 35.0126 71.1348 42.9132C70.752 49.4216 67.6198 53.7721 61.2511 55.2687C53.2119 57.1481 46.2863 54.155 43.5718 46.8113C39.6392 36.0916 39.8132 25.0934 46.4255 15.4875C53.8383 4.66336 64.2788 -1.07934 78.1647 0.173614Z" fill="black"/>
</g>
<defs>
<clipPath id="clip0_878_1153">
<rect width="79" height="56" fill="white"/>
</clipPath>
</defs>
</svg>
